<?xml version="1.0" encoding="UTF-8"?>
<svg width="101px" height="90px" viewBox="0 0 101 90" version="1.1" xmlns="http://www.w3.org/2000/svg" xmlns:xlink="http://www.w3.org/1999/xlink">
    <!-- Generator: Sketch 61.1 (89650) - https://sketch.com -->
    <title>Group 2</title>
    <desc>Created with Sketch.</desc>
    <g id="Page-1" stroke="none" stroke-width="1" fill="none" fill-rule="evenodd">
        <g id="Artboard" transform="translate(-100.000000, -105.000000)">
            <g id="Group" transform="translate(100.000000, 105.000000)">
                <g id="Group-2" transform="translate(0.191318, 0.000000)">
                    <path d="M85.4893234,21.7889666 C74.9796171,16.0214271 64.3413394,10.1255323 53.8311291,4.35786943 C51.6525634,3.204306 49.0893017,3.204306 46.9099851,4.35786943 C36.4002789,10.1255323 25.8900686,16.0214271 15.380352,21.7889666 C13.329864,22.8144009 12.0479246,24.9932031 11.9197234,27.3003403 L11.9197234,62.4187929 C11.9197234,64.85409 13.329864,66.904794 15.5085531,68.0583266 C18.4569017,69.5964111 21.2758046,71.2625323 24.2244103,72.800586 L41.3992491,82.285146 L46.6540971,85.2331243 C47.0385566,85.4894237 47.4228926,85.6176146 47.8074754,85.745754 L48.320136,86.0020431 L48.4483269,86.0020431 C50.2430503,86.5147654 52.1654709,86.2584351 53.7033086,85.4894237 C64.213272,79.7217609 74.7231017,73.8259586 85.2334354,68.0583266 C87.4120011,67.0329231 88.6938171,64.85409 88.8217611,62.4187929 L88.8217611,27.3003403 C88.6938171,24.9932031 87.540192,22.94253 85.4893234,21.7889666 Z M39.988728,61.1371929 L31.7866526,68.6992089 C31.6577006,68.8273997 31.5297566,68.8273997 31.401432,68.8273997 C31.401432,68.8273997 31.2732411,68.8273997 31.2732411,68.8273997 C31.1452971,68.8273997 31.0169829,68.5710077 31.1452971,68.4428786 L34.093152,57.6765643 C34.3494103,56.5230934 35.2467771,55.4976591 36.4002789,55.1132306 L36.5280994,54.9850089 C36.7849851,54.8568386 37.1693211,54.9850089 37.4255897,55.1132306 C37.9383634,55.4976591 38.3226994,55.7540203 38.8354731,56.1385723 C39.3478766,56.5230009 39.8605371,56.7793826 40.3738149,57.0357437 C40.6293223,57.1639654 40.8862183,57.4202031 40.8862183,57.804786 L41.1423531,58.0610854 C41.2705543,59.086386 40.8862183,60.3680889 39.988728,61.1371929 Z M48.4480697,53.7032443 C48.320136,53.7032443 48.320136,53.8314351 48.1919349,53.8314351 L45.6286731,53.5750843 C45.3721577,53.5750843 45.1160126,53.5750843 44.8597543,53.8314351 L42.0398434,56.3948306 C41.9116526,56.5230009 41.7839554,56.5230009 41.6551371,56.5230009 C40.245624,55.8821803 38.9640446,55.1131689 37.810296,54.2159563 C37.682352,54.0877963 37.5537806,53.9596054 37.682352,53.8314351 L38.5789577,50.1145791 C38.7071589,49.858218 38.5789577,49.6018569 38.4513943,49.3455369 L37.0411303,47.1666317 C37.0411303,47.0384409 36.9131863,47.0384409 36.9131863,46.9103014 C36.9131863,46.6538786 37.0411303,46.3975894 37.0411303,46.0130374 L37.0411303,45.884898 C37.0411303,45.884898 37.1693211,45.7566763 37.1693211,45.884898 C38.3230697,46.6538786 43.1932217,49.601826 43.1932217,49.601826 C43.1932217,49.601826 48.0639909,52.5497117 49.217616,53.3187231 C49.3454366,53.4468831 49.3454366,53.5750843 49.3454366,53.7032134 L48.4480697,53.7032443 Z M65.6227851,30.2481849 C65.7510994,30.3763243 65.7510994,30.3763243 65.7510994,30.3763243 L68.3144949,30.7607734 L68.4428194,30.7607734 C68.9552126,30.889098 69.5961874,31.5299186 68.6987074,32.6834511 L57.9324754,47.2947609 C57.8045314,47.4229209 57.5478926,47.4229209 57.420072,47.4229209 L53.0619531,44.7313654 C52.6776274,44.4749837 52.165224,44.4749837 51.65244,44.7313654 L50.2422994,45.6285471 C49.85784,45.884898 49.2169886,45.884898 48.8324057,45.6285471 C48.0633634,44.9877574 46.9099851,45.1158249 46.1410663,45.884898 C44.3464663,47.2948226 41.783328,47.4229209 39.8605371,46.1413209 L34.0928949,42.5525014 C33.9645806,42.4243311 33.9645806,42.4243311 33.83676,42.296202 C33.0680983,41.6553814 33.0680983,40.6300191 33.7086926,39.8609769 C34.2214663,38.9637334 35.503416,38.7074134 36.2717074,39.2200946 L37.4255897,39.8609769 L37.5537806,39.8609769 C37.6821051,39.989106 37.809792,39.8609769 37.809792,39.732714 L38.0659269,38.194722 C38.0659269,38.0665003 38.0659269,37.9383711 37.9379931,37.9383711 L37.6821051,37.81017 C37.1690743,37.5538397 37.0411303,36.7849003 37.2973886,36.2721471 C37.5531531,35.7594043 38.194128,35.6313677 38.7071589,35.8876569 L46.5252789,40.6299574 C46.5252789,40.6299574 46.5252789,40.6299574 46.6537269,40.6299574 C46.7820411,40.7580866 46.9099851,40.6299574 47.0381863,40.501818 L55.1124411,29.4792043 C55.3692137,29.0946523 56.0099314,28.8383323 56.5228389,28.9664923 L58.5730697,29.2228534 L59.9832206,29.4792043 C59.9832206,29.6074054 60.1114114,29.4792043 60.1114114,29.4792043 C60.2394789,29.3510134 60.2394789,29.3510134 60.1114114,29.3510134 C59.5987611,28.9665231 59.4708171,28.1974809 59.8552766,27.6848614 L62.5467394,23.9679643 C62.8032549,23.5834431 63.3155246,23.455314 63.8285554,23.455314 L68.9549657,24.2242946 C69.2113577,24.2242946 69.3399291,24.3524854 69.4679966,24.4806763 C69.4679966,24.4806763 69.4679966,24.4806763 69.59556,24.6088157 C69.8525794,24.8651974 69.7241314,25.2496569 69.4679966,25.506018 C69.4679966,25.506018 66.9044777,28.966554 66.007368,30.2483083 C66.007368,30.2483083 66.007368,30.2483083 66.007368,30.3765094 C65.3663931,29.9918031 65.3663931,30.1200249 65.6227851,30.2481849 Z" id="Fill-31" fill="#04D361"></path>
                    <path d="M60.88032,8.33108914 C64.8534857,5.25498171 67.0325451,4.61413029 70.3649726,4.61413029 C71.3902834,4.61413029 72.4155943,4.87049143 73.1843794,5.25498171 C76.1331086,6.92122629 77.414184,11.9198469 76.5169406,19.0973417 C77.9272149,19.8663531 79.336728,20.6354263 80.7467451,21.404376 C82.1567623,11.1508046 80.2342183,4.10141829 75.235248,1.28166171 C73.6974103,0.384459429 71.9031909,-1.24344979e-14 70.1087143,-1.24344979e-14 C65.622528,-1.24344979e-14 62.0340789,1.28166171 56.3943806,5.76766286 C58.0606663,6.66493714 59.471064,7.56204686 60.88032,8.33108914 Z" id="Fill-33" fill="#FFFFFF"></path>
                    <path d="M11.9197337,53.1905554 C6.02390057,50.3707166 4.61413029,48.0637131 4.61413029,44.8594046 C4.61413029,41.5271006 7.94644457,38.3228229 13.9704686,35.5030766 L13.9704686,30.3762857 C4.99858971,34.0930903 -5.32907052e-15,39.2200046 -5.32907052e-15,44.7313989 C-5.32907052e-15,50.3707783 2.94797829,54.3440571 11.9197337,58.0609851 L11.9197337,53.1905554 Z" id="Fill-35" fill="#FFFFFF"></path>
                    <path d="M23.839704,17.0467277 C23.0705383,9.99734143 24.3522309,7.04948657 27.4284,5.383242 C28.3256434,4.87058143 29.350944,4.61423057 30.248064,4.74235971 C33.5804914,4.74235971 37.425456,6.53680543 41.3988686,9.61282029 C42.8087623,8.843778 44.218656,8.07473571 45.628416,7.30575514 C40.117176,2.81981571 34.6058023,0.256420286 30.1199863,0.256420286 C28.3256434,0.256420286 26.5311669,0.640941429 24.9932057,1.53811286 C19.9943589,4.48596771 17.9438709,9.35645914 19.4815851,19.6099997 C21.0200503,18.5847197 22.4299337,17.8156774 23.839704,17.0467277 Z" id="Fill-37" fill="#FFFFFF"></path>
                    <path d="M88.6933029,31.6580451 L88.6933029,36.528444 C94.5891257,39.3482931 95.9990194,41.6552966 95.9990194,44.8595331 C95.9990194,48.1919091 92.6667051,51.3962074 86.6425577,54.2159331 L86.6425577,59.342652 C95.6143131,55.6257549 100.612903,50.4989743 100.612903,44.9876623 C100.612903,39.3482931 97.7933726,35.3749423 88.6933029,31.6580451 Z" id="Fill-39" fill="#FFFFFF"></path>
                    <path d="M39.8610206,81.2597451 C35.8872377,84.3357909 33.7084251,84.9766423 30.3761109,84.9766423 C29.3504297,84.9766423 28.325376,84.720312 27.5563337,84.3357909 C24.4805349,82.669608 23.3265291,77.5427863 24.2241429,70.4935543 C22.8145063,69.724512 21.2761749,68.9554697 19.8664046,68.0582674 C18.4563874,78.1836686 20.3791886,85.2330651 25.2492069,88.0527806 C26.7875383,88.9499623 28.5820149,89.3345143 30.3761109,89.3345143 C34.8620503,89.4626743 38.5791943,88.18092 44.218512,83.6950423 L39.8610206,81.2597451 Z" id="Fill-41" fill="#FFFFFF"></path>
                    <path d="M76.773708,72.6723309 C77.5427503,79.7217274 76.1327331,82.669572 73.1847549,84.3358269 C72.287892,84.8484771 71.2623343,85.1048383 70.3648543,84.9766783 C67.0326634,84.9766783 63.1875754,83.1822634 59.0862189,80.106156 C57.6764589,80.8752291 56.2664417,81.6442714 54.7283571,82.413252 C60.3681686,87.0274131 65.7508474,89.5908086 70.3648543,89.5908086 C72.1593206,89.5908086 73.9535503,89.2062566 75.4921389,88.309044 C80.490348,85.3612303 82.6694074,80.4906771 81.003132,70.2371674 C79.7216863,71.0061171 78.1833446,71.7751903 76.773708,72.6723309 Z" id="Fill-43" fill="#FFFFFF"></path>
                </g>
            </g>
        </g>
    </g>
</svg>